<?xml version="1.0" encoding="utf-8"?>
<!-- Generator: Adobe Illustrator 19.0.0, SVG Export Plug-In . SVG Version: 6.00 Build 0)  -->
<svg version="1.1" id="hausa-logo-black" xmlns="http://www.w3.org/2000/svg" xmlns:xlink="http://www.w3.org/1999/xlink" x="0px" y="0px"
	 viewBox="0 0 827.8 248.3" style="enable-background:new 0 0 827.8 248.3;" xml:space="preserve">
<style type="text/css">
	.st0{fill:#FFFFFF;}
</style>
<path d="M124.1,0C55.6,0,0,55.6,0,124.1c0,68.6,55.6,124.1,124.1,124.1c68.6,0,124.1-55.6,124.1-124.1C248.3,55.6,192.7,0,124.1,0"
	/>
<g>
	<path d="M300.7,51.1l2.1,2.5l-0.3,3.8c-0.1,1.2-0.2,2.9-0.3,5.3l7.2-3c1.3-0.5,2.9-1.1,5-1.7c4-1.3,8.1-2,12.3-1.9
		c4.2,0,8.2,0.9,12.1,2.5c2.9,1.2,5.1,2.8,6.9,5.1l1.7,2.1l7.7-3.2h0.2v-0.1c2.3-0.9,5.4-1.9,9.4-3c4.5-1.2,9.2-1.2,14.2-0.2
		c3.7,0.7,6.6,2.5,8.8,5.2l1.9,2.5c0.9,1.1,1.7,2.3,2.2,3.6c2.3,4.9,3.3,10.5,3.2,16.7s-0.4,11.1-0.7,14.8c-0.3,3.7-0.5,6.3-0.8,8
		c-0.2,1.6-0.3,2.8-0.2,3.6l0.2,1.1l-13.7,5.7l-2.1-2.5l-0.2-1.1c-0.1-0.7-0.1-1.8,0.2-3.5c0.2-1.7,0.5-4.4,0.8-8
		c0.3-3.7,0.5-8.6,0.7-14.8c0.2-6.2-0.9-11.7-3.2-16.6c-0.3-0.8-0.7-1.6-1.2-2.3c-2.1-2.1-4.6-3.4-7.7-4.1c-5-1-9.8-0.9-14.2,0.4
		c-1.3,0.3-2.4,0.7-3.4,1v0.1c1.8,3.5,3.1,7.9,3.7,13.2c0.6,5.2,0.8,10,0.6,14.3c-0.1,4.3-0.3,7.7-0.4,10.3
		c-0.2,2.6-0.3,4.4-0.3,5.6l-0.2,1.6l-13.7,5.7l-2.1-2.5v-1.6c0.1-1.1,0.3-2.9,0.4-5.4c0.2-2.6,0.3-6,0.5-10.3
		c0.2-4.3-0.1-9-0.7-14.3c-0.6-5.2-1.9-9.6-3.7-13.2c-0.2-0.5-0.5-1-0.9-1.5c-1.6-1.6-3.5-3-5.8-4c-3.9-1.6-8-2.5-12.2-2.5
		c-2.9,0-5.8,0.3-8.8,1l-3.9,1.6c0,2.6,0,5.6,0,9.1c-0.1,9.8-0.2,17.3-0.2,22.4c0,5.2,0,8.7,0,10.6l-0.2,3l-13.7,5.7l-2.1-2.5
		l0.2-2.8c0-2,0-5.5,0-10.6c0-5.1,0-12.6,0.1-22.4c0.1-9.8,0.2-16,0.4-18.6l0.3-3.8L300.7,51.1z"/>
	<path d="M396.8,74.8l-2.1-2.5l5.3-2.8c1.8-1,3.6-1.8,5.3-2.5l13.9-5.8c1.7-0.7,3.5-1.4,5.3-1.9c3.4-1.1,8.3-1.8,14.5-2.2
		c6.2-0.4,11.1,0.2,14.7,2c2.5,1.2,4.5,2.8,5.8,4.6l2.1,2.5c0.6,0.7,1.1,1.5,1.5,2.3c1.4,2.9,2.2,5.7,2.6,8.4
		c0.3,2.7,0.6,6.8,0.7,12.3c0.1,5.5,0.1,9.6-0.2,12.3c-0.2,2.7-0.3,4.6-0.3,5.6l0.2,1.5l-2.9,1.1l1.5,2l-13.9,5.8l-2.6,0.2
		c-1.6,0.2-5,0.3-10.3,0.3c-5.3,0-10.6-0.1-15.9-0.6c-5.3-0.4-9.1-1.2-11.4-2.2c-2.2-1-3.9-2.3-5.3-4l-2.1-2.5v-0.1
		c-1.4-1.7-0.7-4.2,2-7.3c2.7-3.1,5.9-5.7,9.7-7.7c0.6-0.3,1.2-0.7,1.9-1h0.2l13.9-5.8c3.4-1.4,7.6-2.3,12.4-2.7
		c2.7-0.2,5.1-0.4,7-0.5c-0.1-1.4-0.2-2.6-0.3-3.6c-0.3-2.7-1.2-5.5-2.6-8.4c-0.2-0.3-0.5-0.7-0.7-1c-1.3-1.3-2.9-2.5-4.8-3.5
		c-3.5-1.7-8.4-2.4-14.6-2c-5.5,0.4-9.9,1-13.2,1.9l-3.6,1.9L396.8,74.8z M450.7,91.1l-3.9,1.6l-3.1-0.5c-2.2-0.4-6.2-0.3-12.2,0.2
		c-1.7,0.1-3.4,0.3-5,0.6c-1.9,1.5-3.7,3.2-5.3,5.1c-2.3,2.6-3.1,4.7-2.6,6.3c1.1,1,2.5,1.9,3.9,2.6c2.3,1,6.1,1.7,11.4,2.1
		c5.3,0.4,10.6,0.6,15.9,0.6h0.3c0-1.1,0.1-2.8,0.3-5.1c0.2-2.6,0.3-6.7,0.2-12.2C450.7,92,450.7,91.5,450.7,91.1z"/>
	<path d="M535.3,57.5l1.9,2.5l-0.5,4.1c-0.3,2.6-0.6,6.3-0.7,11c-0.1,4.7-0.3,8.5-0.4,11.3c-0.2,2.8-0.3,6.3-0.3,10.4v12.1
		c0,3.9-0.2,7.4-0.5,10.6c-0.3,3.2-1.5,6-3.5,8.4c-2,2.4-4.1,4.3-6.4,5.6c-0.6,0.3-1.1,0.6-1.7,0.9l-13.7,5.7
		c-2.1,0.8-4.5,1.3-7.2,1.5c-3.7,0.3-7.8,0.2-12.3-0.5c-4.5-0.7-7.2-1.2-8-1.6l-1.2-0.6l-2.1-2.5l13.9-5.8l1.2,0.7
		c0.7,0.4,3.3,0.9,7.9,1.5c4.3,0.6,8.2,0.8,11.7,0.6c0.7-0.7,1.4-1.4,2.1-2.2c2.1-2.5,3.2-5.3,3.5-8.5c0.3-3.2,0.4-6.7,0.4-10.6
		v-7.4l-1.2,0.6l-3.1,0.4c-1.9,0.3-5.3,0.7-10,1c-4.7,0.3-9.3,0.2-13.6-0.2c-4.3-0.5-8.4-1.6-12.3-3.2c-2.6-1.2-4.8-2.7-6.5-4.7
		l-1.9-2.6c-0.7-0.8-1.3-1.7-1.7-2.7c-1.7-3.4-2.6-6.1-2.6-8.3c0-2.1,0.5-4.6,1.5-7.2c1-2.7,2.7-4.8,5-6.5c1.1-0.7,2.6-1.5,4.5-2.3
		l13.9-5.7c1.8-0.8,4.1-1.6,6.7-2.3c5.1-1.5,10.2-2.3,15.2-2.6s9.4,0,13.1,0.6l3.8,0.7L535.3,57.5z M520.7,68l-0.5,0.1l-5.7-1
		c-3.7-0.7-8-0.9-13-0.6c-4.5,0.2-8.9,0.9-13.4,2.1c-1.9,1.5-3.4,3.4-4.3,5.8c-1,2.6-1.5,5-1.5,7.2c0,2.2,0.9,5,2.6,8.3
		c0.2,0.5,0.5,1,0.9,1.5c1.4,1.4,3.1,2.6,5.3,3.6c3.9,1.6,8,2.7,12.3,3.2c4.3,0.5,8.8,0.5,13.5,0.2c0.9,0,1.8,0,2.6-0.1
		c0.1-3.4,0.2-6.3,0.3-8.7c0.2-2.9,0.4-6.7,0.5-11.4C520.2,74,520.3,70.5,520.7,68z"/>
	<path d="M539.2,74.8l-2.1-2.5l5.3-2.8c1.8-1,3.6-1.8,5.3-2.5l13.9-5.8c1.7-0.7,3.5-1.4,5.3-1.9c3.4-1.1,8.3-1.8,14.5-2.2
		c6.2-0.4,11.1,0.2,14.7,2c2.5,1.2,4.5,2.8,5.8,4.6l2.1,2.5c0.6,0.7,1.1,1.5,1.5,2.3c1.4,2.9,2.2,5.7,2.6,8.4
		c0.3,2.7,0.6,6.8,0.7,12.3c0.1,5.5,0.1,9.6-0.2,12.3c-0.2,2.7-0.3,4.6-0.3,5.6l0.2,1.5l-2.9,1.1l1.5,2l-13.9,5.8l-2.6,0.2
		c-1.6,0.2-5,0.3-10.3,0.3c-5.3,0-10.6-0.1-15.9-0.6c-5.3-0.4-9.1-1.2-11.4-2.2c-2.2-1-3.9-2.3-5.3-4l-2.1-2.5v-0.1
		c-1.4-1.7-0.7-4.2,2-7.3c2.7-3.1,5.9-5.7,9.7-7.7c0.6-0.3,1.2-0.7,1.9-1h0.2l13.9-5.8c3.4-1.4,7.6-2.3,12.4-2.7
		c2.7-0.2,5.1-0.4,7-0.5c-0.1-1.4-0.2-2.6-0.3-3.6c-0.3-2.7-1.2-5.5-2.6-8.4c-0.2-0.3-0.5-0.7-0.7-1c-1.3-1.3-2.9-2.5-4.8-3.5
		c-3.5-1.7-8.4-2.4-14.6-2c-5.5,0.4-9.9,1-13.2,1.9l-3.6,1.9L539.2,74.8z M593.1,91.1l-3.9,1.6l-3.1-0.5c-2.2-0.4-6.2-0.3-12.2,0.2
		c-1.7,0.1-3.4,0.3-5,0.6c-1.9,1.5-3.7,3.2-5.3,5.1c-2.3,2.6-3.1,4.7-2.6,6.3c1.1,1,2.5,1.9,3.9,2.6c2.3,1,6.1,1.7,11.4,2.1
		c5.3,0.4,10.6,0.6,15.9,0.6h0.3c0-1.1,0.1-2.8,0.3-5.1c0.2-2.6,0.3-6.7,0.2-12.2C593.1,92,593.1,91.5,593.1,91.1z"/>
	<path d="M625.4,53.5l1.9,2.5v5.1c0,0.7,0,1.5,0,2.3l10.5-4.5c0.1,0,0.2,0,0.3-0.1c0.8-0.3,1.7-0.7,2.6-1c3.9-1.4,7.5-1.8,10.9-1.2
		c3.4,0.6,6.5,2.1,9.5,4.6c1.8,1.5,3.5,3.2,5,5.1l2.1,2.5c0.9,1.2,1.8,2.4,2.6,3.7c2.2,3.4,3.6,6.6,4.3,9.7c0.7,3.1,1,5.9,1,8.4
		c0,2.5-0.1,5.2-0.2,8.2c-0.1,2.9-0.1,5.5-0.1,7.8c0.1,2.3,0.1,3.9,0.1,5l0.2,1.6l-13.9,5.8l-2.1-2.5v-1.6c-0.1-1.1-0.2-2.7-0.2-5
		c0-2.3,0-4.9,0.1-7.8c0.1-2.9,0.1-5.7,0.1-8.2c0-2.6-0.3-5.4-0.9-8.4c-0.6-3-2-6.3-4.2-9.8c-0.6-0.8-1.1-1.6-1.7-2.3
		c-1.3-1.4-2.6-2.7-3.9-4c-3-2.4-6.1-3.9-9.4-4.5c-1.9-0.4-4-0.5-6.2-0.1l-1.7,1.4l-4.6,2c-0.1,2.4-0.2,5.2-0.2,8.3
		c-0.2,6.8-0.5,11.7-0.8,14.5c-0.3,2.8-0.6,5.9-0.9,9.4c-0.3,3.5-0.5,6.1-0.5,7.8c-0.1,1.7-0.1,2.8-0.1,3.3l-0.2,0.7l-13.7,5.8
		l-2.1-2.5l0.2-0.7c0-0.5,0-1.6,0.1-3.4c0.1-1.8,0.2-4.4,0.5-7.8c0.3-3.4,0.6-6.6,0.9-9.4c0.3-2.8,0.5-7.7,0.7-14.5
		c0.2-6.8,0.3-11.9,0.3-15.3v-5.1L625.4,53.5z"/>
	<path d="M677.9,74.8l-2.1-2.5l5.3-2.8c1.8-1,3.6-1.8,5.3-2.5l13.9-5.8c1.7-0.7,3.5-1.4,5.3-1.9c3.4-1.1,8.3-1.8,14.5-2.2
		c6.2-0.4,11.1,0.2,14.7,2c2.5,1.2,4.5,2.8,5.8,4.6l2.1,2.5c0.6,0.7,1.1,1.5,1.5,2.3c1.4,2.9,2.2,5.7,2.6,8.4
		c0.3,2.7,0.6,6.8,0.7,12.3c0.1,5.5,0.1,9.6-0.2,12.3c-0.2,2.7-0.3,4.6-0.3,5.6l0.2,1.5l-2.9,1.1l1.5,2l-13.9,5.8l-2.6,0.2
		c-1.6,0.2-5,0.3-10.3,0.3c-5.3,0-10.6-0.1-15.9-0.6c-5.3-0.4-9.1-1.2-11.4-2.2c-2.2-1-3.9-2.3-5.3-4l-2.1-2.5v-0.1
		c-1.4-1.7-0.7-4.2,2-7.3c2.7-3.1,5.9-5.7,9.7-7.7c0.6-0.3,1.2-0.7,1.9-1h0.2l13.9-5.8c3.4-1.4,7.6-2.3,12.4-2.7
		c2.7-0.2,5.1-0.4,7-0.5c-0.1-1.4-0.2-2.6-0.3-3.6c-0.3-2.7-1.2-5.5-2.6-8.4c-0.2-0.3-0.5-0.7-0.7-1c-1.3-1.3-2.9-2.5-4.8-3.5
		c-3.5-1.7-8.4-2.4-14.6-2c-5.5,0.4-9.9,1-13.2,1.9l-3.6,1.9L677.9,74.8z M731.8,91.1l-3.9,1.6l-3.1-0.5c-2.2-0.4-6.2-0.3-12.2,0.2
		c-1.7,0.1-3.4,0.3-5,0.6c-1.9,1.5-3.7,3.2-5.3,5.1c-2.3,2.6-3.1,4.7-2.6,6.3c1.1,1,2.5,1.9,3.9,2.6c2.3,1,6.1,1.7,11.4,2.1
		c5.3,0.4,10.6,0.6,15.9,0.6h0.3c0-1.1,0.1-2.8,0.3-5.1c0.2-2.6,0.3-6.7,0.2-12.2C731.8,92,731.8,91.5,731.8,91.1z"/>
	<path d="M764.2,52.9l2.1,2.5l-0.2,7.3c0,0.3,0,0.7,0,1.1l4.8-2l4.6-1.7c3.2-1.2,7.1-1.4,11.8-0.6c4.6,0.8,7.3,1.4,8,1.7l1,0.5
		l2.1,2.5l-13.7,5.7l-1.2-0.5c-0.7-0.3-3.3-0.9-7.9-1.6c-3.7-0.7-6.9-0.7-9.6-0.1c0,2.8-0.1,5.3-0.3,7.4c-0.2,3.3-0.5,7.2-0.8,11.6
		c-0.3,4.4-0.6,8.6-0.9,12.6c-0.3,4-0.5,7-0.5,9v5.1l-13.7,5.7l-2.1-2.5v-4.9c0-2,0.2-5,0.5-9c0.3-4,0.7-8.3,0.9-12.7
		c0.3-4.4,0.5-8.3,0.8-11.6c0.2-3.3,0.4-7.4,0.5-12.2l0.2-7.3L764.2,52.9z"/>
</g>
<g>
	<path d="M298.7,135.9l1.8,2.4v22.5c0,0.2,0,0.5,0,0.9s0,0.6,0,0.8l8.4-3.6c1.9-0.8,4.7-1.5,8.4-2.3c3.7-0.6,8.2-0.6,13.3,0.1
		c5.1,0.7,8.9,2,11.5,3.9c1,0.7,1.8,1.5,2.6,2.5l1.8,2.4c1.2,1.5,2,3.3,2.6,5.4c1,3.3,1.6,6.7,1.8,10.2c0.3,3.5,0.3,6.7,0.2,9.6
		c-0.2,2.9-0.4,5.4-0.5,7.5c-0.1,2.1-0.2,3.9-0.3,5.4l-0.2,2.1l-12.8,5.5l-1.9-2.4l0.2-2.1c0.1-1.3,0.2-3.1,0.3-5.2
		c0.1-2.1,0.2-4.7,0.4-7.6c0.2-2.9,0.1-6.1-0.2-9.6c-0.3-3.5-0.9-6.8-1.8-10.2c-0.3-1.5-0.9-2.9-1.6-4c-0.5-0.5-1.1-1-1.6-1.4
		c-2.6-1.8-6.4-3.1-11.5-3.8c-5.1-0.7-9.5-0.8-13.3-0.1c-0.6,0.2-1.3,0.3-1.9,0.4l-3.7,1.5c0,6.3,0.1,12.1,0.2,17.5
		c0.1,7.1,0.2,11.9,0.2,14.5v7.6l-13,5.6l-1.8-2.4v-7.7c0-2.5-0.1-7.3-0.2-14.4c-0.1-7.1-0.2-14.8-0.2-23.2v-22.6L298.7,135.9z"/>
	<path d="M352.9,169.8l-1.9-2.4l5-2.7c1.7-1,3.4-1.7,5-2.4l13-5.6c1.6-0.7,3.3-1.3,5-1.8c3.2-1,7.7-1.7,13.6-2.1
		c5.8-0.4,10.4,0.2,13.7,1.9c2.4,1.2,4.2,2.7,5.5,4.4l1.9,2.4c0.5,0.7,1,1.5,1.4,2.3c1.3,2.8,2.1,5.5,2.4,8.1s0.5,6.6,0.6,11.9
		c0.1,5.3,0.1,9.2-0.2,11.9c-0.2,2.6-0.3,4.4-0.3,5.4l0.2,1.4l-2.7,1.1l1.4,1.9l-13,5.6l-2.4,0.2c-1.5,0.2-4.7,0.3-9.6,0.3
		c-4.9,0-9.9-0.1-14.9-0.5c-5-0.4-8.5-1.1-10.7-2.1c-2-1-3.7-2.2-5-3.8l-1.9-2.4v-0.1c-1.3-1.7-0.7-4,1.8-7c2.5-3,5.5-5.5,9.1-7.4
		c0.5-0.3,1.1-0.6,1.8-1h0.2l13-5.6c3.2-1.3,7.1-2.2,11.6-2.6c2.6-0.2,4.8-0.4,6.6-0.5c-0.1-1.3-0.2-2.5-0.3-3.5
		c-0.3-2.6-1.1-5.3-2.4-8.1c-0.2-0.3-0.4-0.6-0.6-1c-1.2-1.3-2.7-2.4-4.5-3.3c-3.3-1.7-7.9-2.3-13.7-1.9c-5.1,0.4-9.3,1-12.4,1.8
		l-3.4,1.8L352.9,169.8z M403.3,185.5l-3.7,1.5l-2.9-0.5c-2-0.4-5.8-0.3-11.4,0.2c-1.6,0.1-3.2,0.3-4.7,0.6c-1.8,1.4-3.5,3.1-5,4.9
		c-2.1,2.5-2.9,4.6-2.4,6.1c1.1,1,2.3,1.8,3.7,2.5c2.1,1,5.7,1.6,10.7,2c5,0.4,9.9,0.6,14.9,0.6h0.3c0-1,0.1-2.7,0.3-4.9
		c0.2-2.5,0.3-6.5,0.2-11.8C403.3,186.4,403.3,185.9,403.3,185.5z"/>
	<path d="M433.5,149.3l1.8,2.4v4.9c0,0.7,0,1.5,0,2.3l9.8-4.3c0.1,0,0.2,0,0.3-0.1c0.7-0.3,1.6-0.6,2.4-1c3.6-1.3,7-1.7,10.2-1.2
		c3.2,0.6,6.1,2,8.9,4.4c1.7,1.4,3.3,3.1,4.7,4.9l1.9,2.4c0.9,1.1,1.7,2.3,2.4,3.6c2,3.3,3.4,6.4,4,9.3s1,5.7,1,8.1
		c0,2.4-0.1,5-0.2,7.9c-0.1,2.8-0.1,5.3-0.1,7.5c0.1,2.2,0.1,3.8,0.1,4.8l0.2,1.5l-13,5.6l-1.9-2.4v-1.5c-0.1-1-0.2-2.6-0.2-4.8
		c0-2.2,0-4.7,0.1-7.5c0.1-2.8,0.1-5.5,0.1-7.9c0-2.5-0.3-5.2-0.9-8.1c-0.6-2.9-1.9-6.1-3.9-9.4c-0.5-0.8-1.1-1.5-1.6-2.3
		c-1.2-1.3-2.4-2.6-3.7-3.8c-2.8-2.3-5.7-3.7-8.8-4.3c-1.8-0.4-3.7-0.4-5.8-0.1l-1.6,1.3l-4.3,1.9c-0.1,2.3-0.2,5-0.2,8
		c-0.2,6.6-0.5,11.2-0.7,13.9c-0.3,2.7-0.5,5.7-0.8,9.1c-0.3,3.3-0.4,5.8-0.5,7.5c-0.1,1.7-0.1,2.7-0.1,3.2l-0.2,0.7l-12.8,5.6
		l-1.9-2.4l0.2-0.7c0-0.5,0-1.6,0.1-3.3c0.1-1.7,0.2-4.2,0.5-7.5c0.3-3.3,0.5-6.3,0.8-9.1c0.3-2.7,0.5-7.4,0.6-13.9
		c0.2-6.6,0.2-11.5,0.2-14.7v-4.9L433.5,149.3z"/>
	<path d="M496.1,149.3l1.8,2.4v4.9c0,0.7,0,1.5,0,2.3l9.8-4.3c0.1,0,0.2,0,0.3-0.1c0.7-0.3,1.6-0.6,2.4-1c3.6-1.3,7-1.7,10.2-1.2
		c3.2,0.6,6.1,2,8.9,4.4c1.7,1.4,3.3,3.1,4.7,4.9l1.9,2.4c0.9,1.1,1.7,2.3,2.4,3.6c2,3.3,3.4,6.4,4,9.3s1,5.7,1,8.1
		c0,2.4-0.1,5-0.2,7.9c-0.1,2.8-0.1,5.3-0.1,7.5c0.1,2.2,0.1,3.8,0.1,4.8l0.2,1.5l-13,5.6l-1.9-2.4v-1.5c-0.1-1-0.2-2.6-0.2-4.8
		c0-2.2,0-4.7,0.1-7.5c0.1-2.8,0.1-5.5,0.1-7.9c0-2.5-0.3-5.2-0.9-8.1c-0.6-2.9-1.9-6.1-3.9-9.4c-0.5-0.8-1.1-1.5-1.6-2.3
		c-1.2-1.3-2.4-2.6-3.7-3.8c-2.8-2.3-5.7-3.7-8.8-4.3c-1.8-0.4-3.7-0.4-5.8-0.1l-1.6,1.3l-4.3,1.9c-0.1,2.3-0.2,5-0.2,8
		c-0.2,6.6-0.5,11.2-0.7,13.9c-0.3,2.7-0.5,5.7-0.8,9.1c-0.3,3.3-0.4,5.8-0.5,7.5c-0.1,1.7-0.1,2.7-0.1,3.2l-0.2,0.7l-12.8,5.6
		l-1.9-2.4l0.2-0.7c0-0.5,0-1.6,0.1-3.3c0.1-1.7,0.2-4.2,0.5-7.5c0.3-3.3,0.5-6.3,0.8-9.1c0.3-2.7,0.5-7.4,0.6-13.9
		c0.2-6.6,0.2-11.5,0.2-14.7v-4.9L496.1,149.3z"/>
	<path d="M558,153.7l1.9,2.4l-0.2,2.3c-0.1,1.4-0.4,4.5-1,9.2c-0.4,4.7-0.6,9.3-0.6,13.8c0,4.5,0.6,8.4,1.9,11.6
		c0.5,1.4,1.2,2.7,1.9,3.8c0.3,0.4,0.6,0.7,1,1c2,1.6,4.4,2.8,7.1,3.6c2.7,0.8,5.8,1.2,9.3,1.1c3.5-0.1,6.6-0.5,9.3-1.3
		c0.9-0.3,1.7-0.6,2.6-0.8c-0.1-2.3-0.2-4.9-0.2-7.9V176c0-6.6,0.1-10.8,0.3-12.5l0.3-2.6l12.8-5.6l1.9,2.4l-0.3,2.6
		c-0.1,1.8-0.2,6-0.2,12.6v16.3c0,4.4,0,8,0.1,11c0.1,2.9,0.1,5.1,0.1,6.4v2l-12.8,5.5l-1.9-2.4v-2c0-1.1,0-2.8,0-5.1l-3.1,1.2
		l-3.4,1.1c-2.2,0.7-4.7,1.4-7.4,2.2c-2.7,0.8-5.8,1.2-9.3,1.3c-3.5,0.1-6.6-0.2-9.3-1.1c-2.7-0.8-5-2-6.9-3.6
		c-0.8-0.6-1.4-1.2-2.1-2l-1.9-2.5c-1.1-1.3-2-3-2.7-5c-1.3-3.2-1.9-7-1.9-11.6c0-4.6,0.2-9.2,0.6-13.8c0.4-4.6,0.7-7.7,1-9.2
		l0.2-2.3L558,153.7z"/>
</g>
<path class="st0" d="M83.8,121.9c-9.5,0.9-10.1,0.1-11-3.7c-0.7,0.4-1.3,0.7-1.8,1c-3,1.8-5.5,1-6.3-2.5c-0.6-2.7-0.6-5.6-0.8-8.4
	c-0.3-3.7-0.6-7.3-0.8-11c-0.1-2.1-0.2-4.2,0.2-6.2c0.2-0.9,1.5-1.8,2.5-2.1c0.6-0.1,1.6,1,2.1,1.8c0.7,1,1,2.3,1.6,4
	c0.9-5.2,1.7-9.6,2.5-14.1c0.2-1.3,0.5-2.8,1.2-3.8c4.5-5.5,8.5-11.5,14.8-15.2c1.8-1.1,3.6-2.1,5.3-3.2c9.3-6.2,19.7-7.4,30.6-7.5
	c17.1-0.1,32.8,4.9,47.7,12.6c8.9,4.6,14.5,11.7,14.6,22.1c0.1,12.8,0.6,25.5-1.6,38.2c-1.2,7-3.8,13.1-8.6,18.2
	c-8.3,8.9-16.9,17.5-25.3,26.3c-1.2,1.3-2.7,2.4-3.7,3.8c-5.3,7.1-12.8,8.1-20.8,7.1c-7.2-0.9-13-4.1-17.9-9.7
	c-5.7-6.6-12.2-12.5-18.4-18.7c-7.1-7.2-12.9-15.1-15.1-26.4c3-0.1,5.6-0.3,8.6-0.4 M100.1,72.5c0.9,1.2,1.7,3.1,2.9,3.5
	c3,0.9,6.3,1.1,9.4,1.6c1-4.7,0.6-5.2-3.8-5.5c-2.2-0.2-4.3-0.8-6.5-0.9C101.5,71.1,100.8,72.1,100.1,72.5
	c-4.6-2.9-13.1,0.3-15.6,6.8c5.1-3.2,9.9-4.9,15.2-4c0.2-0.7,0.5-1.1,0.5-1.5C100.3,73.4,100.2,72.9,100.1,72.5z M108.1,144.8
	c2,2.7,5.1,3.5,8.1,3.6c9.9,0.5,19.9,0.6,29.8,0.8c2.4,0.1,4-1,5.1-4c-5.3,0.9-8.7-1.6-11.7-4.9c-1.9-2.1-4-2.4-6.3-0.7
	c-2.2,1.6-4.3,1.7-6.4-0.2c-1.8-1.6-3.6-1.5-5.7-0.4C116.9,141,112.7,142.7,108.1,144.8z M97.6,90.6c-1.8,0.7-3.1,1.3-4.5,1.9
	c0.1,0.4,0.2,0.8,0.3,1.2c4.9-0.4,9.7-0.8,14.6-1.3c0.8-0.1,1.8-0.6,2.4-0.3c2.9,1,4.8-0.2,6.7-2.7c-2.8-1.9-5.7-3.8-8.5-5.7
	c0.1-0.2,0.2-0.4,0.4-0.6c2.3,1.2,4.6,2.5,6.9,3.7c0.2-0.2,0.5-0.4,0.7-0.6c-0.9-1.1-1.6-2.7-2.7-3.3c-1.8-0.9-3.9-1.6-5.9-1.6
	c-6.3-0.2-12.7-0.1-19.1-0.1c-0.5,1.5-0.9,2.7-1.2,3.5C89.9,88.9,96,85.2,97.6,90.6z M130,131.9c-2.4-1.8-4.5-4-7.2-5.1
	c-2.5-1.1-5.6-0.9-8.1-1.3c-1.9-2.8,3.7-4.7,0.6-7.8c-2.7,2.3-3.7,5.1-3.3,8.2c0.4,3.7,2.2,4.6,6.1,4.1c2.5-0.3,4.8,0.2,6.7,2.3
	c2.3,2.5,6.8,2.6,8.7,0.3c0.9-1,1.5-2.4,2.2-3.6c3.1,2.2,8.5,2,10.3-0.2c1.5-1.8,0.7-5.9-2.4-8.8c0.3,2.4,0.6,4.8,0.9,7.5
	c-1.4-0.3-2.1-0.5-2.8-0.6c-4-0.4-8.4-1.5-10.2,3.9C131.4,131.3,130.6,131.5,130,131.9z M161.6,96c-0.1-0.6-0.1-0.9-0.2-1.1
	c-0.6-1-1.2-2-1.9-3c1.1-0.5,2.2-1.1,3.3-1.6c1.3-0.6,2.7-1.2,4.1-1.8c-1.2-1-2.2-1.2-3.2-1.3c-3.2-0.3-6.4-0.7-9.7-0.8
	c-3.3,0-6.7,0.1-10,0.7c-1.9,0.4-3.9,1.7-2.6,4.5c6.5-2.9,6.5-2.9,8.9,0.1c-1.8,1.5-5.6-1.8-6.4,2.6C150,95,155.7,95.5,161.6,96z
	 M140.3,156.1c-1.8-1-2.9-2.3-3.7-2.1c-5.6,1.4-10.9-0.6-16.3-0.8c-1.5-0.1-3.1,0.3-5,0.5C119.7,158.4,130.3,159.6,140.3,156.1z
	 M159.1,77.2c0.9-1.8,0.9-3.5-2-3.8c-3.9-0.4-7.8-0.8-11.7-1c-2.1-0.1-4,1.7-3.5,3.3c0.6,2.1,2.2,1.7,3.9,1.6
	C150,77,154.3,77.2,159.1,77.2z M70.4,95.8c-3.2,4.8,2.1,11-3.6,15.2c1.8,1.5,3.1,2.6,4.7,3.9C74.4,108,71.2,102.1,70.4,95.8z
	 M143.4,85.1c9-1.5,18.2,2.8,28-1c-1.1-1.4-1.9-2.3-3.2-4c-0.2,1.9-0.2,2.8-0.3,3.7C159.7,84.8,151.5,81.9,143.4,85.1z"/>
<path class="st0" d="M164.1,160.7c-0.5,5-1,10-1.4,15c-0.4,4.9,0.1,9.7,1.5,14.5c3.3,10.8,0.8,20.6-6.8,28.9
	c-3.3,3.6-6.4,7.3-11.1,9.5c-3.9,1.8-7.9,2.1-12.1,2.2c-4,0-8.1-0.6-12-0.2c-6.4,0.7-12.2-1.5-17.5-4.1
	c-8.1-3.9-14.2-10.3-17.7-18.7c-4.2-9.9-5-19.8-1.8-30.4c2.4-8,2.5-16.6,3.7-25.2c1.4,1.3,3.3,2.9,5,4.6c5.5,5.7,10.7,11.6,16.4,17
	c6.5,6.2,14.7,7.7,23.4,7.6c8.6-0.1,13.5-5.9,18.9-11c3.5-3.4,7.1-6.7,10.7-10C163.5,160.4,163.8,160.5,164.1,160.7z M135.8,200.8
	c4.2-3.5,9-14.3,8.1-18.3C141.2,188.7,138.6,194.5,135.8,200.8z M115.4,199.2c0.3-0.1,0.6-0.1,0.9-0.2c-0.8-2.9-1.3-5.9-2.4-8.7
	c-1.1-2.9,1.2-6.5-2.3-9.8C110.8,187.8,113,193.5,115.4,199.2z"/>
<path class="st0" d="M69.6,81.2c-4.4-14.1-1.5-26.5,3.7-38.8c6.4-15.1,19.2-21.9,33.2-27.5c11.9-4.7,24.1-4,35.9-0.6
	c16.5,4.7,30.2,13.6,39.7,28.4c4.2,6.5,5.5,13.3,4.1,20.8c-0.5,2.9-0.4,5.8-0.6,9.3c-1.6-1.4-3.1-2.4-4.2-3.7
	c-6-7.3-14.2-11.1-22.9-14c-11-3.7-22.1-6.5-33.9-6.8c-15.1-0.4-28.4,4.7-40.6,12.6c-5.4,3.5-9.8,9.1-12.5,15.4
	C71,77.6,70.5,78.9,69.6,81.2z"/>
<path class="st0" d="M188,117.3c-0.7-6.6,0.3-27,1.5-29.2c3.7,1,1.6,4.6,2.9,6.7c2.1-5.3,1.5-6.9-4.2-9.8c1-1,1.7-2.2,2.6-2.4
	c0.9-0.2,2.6,0.5,2.9,1.3c0.8,2,1.8,4.4,1.3,6.2c-2,6.2-2.2,12.5-2.5,18.9C192.3,112.1,192.3,115.6,188,117.3z"/>
<path class="st0" d="M67.7,86.9c-2,0.3-3.8,0.7-5.5,1c-0.3-3.3,0.4-4.5,2.8-4.6C67.7,83.2,68,84.9,67.7,86.9z"/>
</svg>
